<?xml version="1.0" encoding="UTF-8" standalone="no"?>
<svg
   xmlns:dc="http://purl.org/dc/elements/1.1/"
   xmlns:cc="http://creativecommons.org/ns#"
   xmlns:rdf="http://www.w3.org/1999/02/22-rdf-syntax-ns#"
   xmlns:svg="http://www.w3.org/2000/svg"
   xmlns="http://www.w3.org/2000/svg"
   xmlns:sodipodi="http://sodipodi.sourceforge.net/DTD/sodipodi-0.dtd"
   xmlns:inkscape="http://www.inkscape.org/namespaces/inkscape"
   width="297mm"
   height="210mm"
   viewBox="0 0 297 210"
   version="1.1"
   id="svg3029"
   inkscape:version="1.0.2 (e86c870879, 2021-01-15)"
   sodipodi:docname="icons.svg">
  <defs
     id="defs3023" />
  <sodipodi:namedview
     id="base"
     pagecolor="#ffffff"
     bordercolor="#666666"
     borderopacity="1.0"
     inkscape:pageopacity="0.0"
     inkscape:pageshadow="2"
     inkscape:zoom="0.7"
     inkscape:cx="423.17895"
     inkscape:cy="346.10082"
     inkscape:document-units="mm"
     inkscape:current-layer="layer1"
     inkscape:document-rotation="0"
     showgrid="false"
     showguides="true"
     inkscape:guide-bbox="true"
     inkscape:window-width="1920"
     inkscape:window-height="1024"
     inkscape:window-x="0"
     inkscape:window-y="28"
     inkscape:window-maximized="1">
    <sodipodi:guide
       position="119.51119,179.85325"
       orientation="0,-1"
       id="guide3750" />
    <sodipodi:guide
       position="66.282845,110.70937"
       orientation="0,-1"
       id="guide3752" />
  </sodipodi:namedview>
  <metadata
     id="metadata3026">
    <rdf:RDF>
      <cc:Work
         rdf:about="">
        <dc:format>image/svg+xml</dc:format>
        <dc:type
           rdf:resource="http://purl.org/dc/dcmitype/StillImage" />
        <dc:title></dc:title>
      </cc:Work>
    </rdf:RDF>
  </metadata>
  <g
     inkscape:label="Layer 1"
     inkscape:groupmode="layer"
     id="layer1">
    <g
       id="g1123"
       style="fill:#80ff84;fill-opacity:1"
       transform="matrix(0.26458333,0,0,0.26458333,-3.5063979,29.014578)" />
    <g
       id="g1125"
       style="fill:#80ff84;fill-opacity:1"
       transform="matrix(0.26458333,0,0,0.26458333,-3.5063979,29.014578)" />
    <g
       id="g1127"
       style="fill:#80ff84;fill-opacity:1"
       transform="matrix(0.26458333,0,0,0.26458333,-3.5063979,29.014578)" />
    <g
       id="g1129"
       style="fill:#80ff84;fill-opacity:1"
       transform="matrix(0.26458333,0,0,0.26458333,-3.5063979,29.014578)" />
    <g
       id="g1131"
       style="fill:#80ff84;fill-opacity:1"
       transform="matrix(0.26458333,0,0,0.26458333,-3.5063979,29.014578)" />
    <g
       id="g1133"
       style="fill:#80ff84;fill-opacity:1"
       transform="matrix(0.26458333,0,0,0.26458333,-3.5063979,29.014578)" />
    <g
       id="g1135"
       style="fill:#80ff84;fill-opacity:1"
       transform="matrix(0.26458333,0,0,0.26458333,-3.5063979,29.014578)" />
    <g
       id="g1137"
       style="fill:#80ff84;fill-opacity:1"
       transform="matrix(0.26458333,0,0,0.26458333,-3.5063979,29.014578)" />
    <g
       id="g1139"
       style="fill:#80ff84;fill-opacity:1"
       transform="matrix(0.26458333,0,0,0.26458333,-3.5063979,29.014578)" />
    <g
       id="g1141"
       style="fill:#80ff84;fill-opacity:1"
       transform="matrix(0.26458333,0,0,0.26458333,-3.5063979,29.014578)" />
    <g
       id="g1143"
       style="fill:#80ff84;fill-opacity:1"
       transform="matrix(0.26458333,0,0,0.26458333,-3.5063979,29.014578)" />
    <g
       id="g1145"
       style="fill:#80ff84;fill-opacity:1"
       transform="matrix(0.26458333,0,0,0.26458333,-3.5063979,29.014578)" />
    <g
       id="g1147"
       style="fill:#80ff84;fill-opacity:1"
       transform="matrix(0.26458333,0,0,0.26458333,-3.5063979,29.014578)" />
    <g
       id="g1149"
       style="fill:#80ff84;fill-opacity:1"
       transform="matrix(0.26458333,0,0,0.26458333,-3.5063979,29.014578)" />
    <g
       id="g1151"
       style="fill:#80ff84;fill-opacity:1"
       transform="matrix(0.26458333,0,0,0.26458333,-3.5063979,29.014578)" />
    <g
       id="lights-ok"
       transform="matrix(0.13888921,0,0,0.13672401,16.48425,115.4708)"
       style="fill:#80ff84;fill-opacity:1"
       inkscape:export-xdpi="21.771423"
       inkscape:export-ydpi="21.771423"
       inkscape:export-filename="/home/damien/lights-ok.png">
      <path
         d="m 139.702,317.377 c 13.119,11.113 21.818,26.169 24.961,42.604 H 240.99 V 253.082 c -25.849,-6.678 -45,-30.195 -45,-58.102 h 30 c 0,16.542 13.458,30 30,30 16.542,0 30,-13.458 30,-30 h 30 c 0,27.906 -19.151,51.424 -45,58.102 V 359.98 h 76.344 c 3.177,-16.431 11.959,-31.562 25.202,-42.823 40.326,-34.29 63.454,-84.289 63.454,-137.177 0,-161.352 -196.781,-240.593 -308.844,-125.467 -73.136,75.138 -66.884,195.57 12.556,262.864 z"
         id="path2447"
         style="fill:#80ff84;fill-opacity:1" />
      <path
         d="m 255.99,511.98 c 33.084,0 60,-26.916 60,-60 h -120 c 0,33.084 26.916,60 60,60 z"
         id="path2449"
         style="fill:#80ff84;fill-opacity:1" />
      <path
         d="m 165.99,389.98 h 180 v 32 h -180 z"
         id="path2451"
         style="fill:#80ff84;fill-opacity:1" />
    </g>
    <g
       id="doors-ok"
       style="fill:#80ff84;fill-opacity:1"
       transform="matrix(0.15440915,0,0,0.14163217,17.082539,20.228958)"
       inkscape:export-xdpi="21.771429"
       inkscape:export-ydpi="21.771429"
       inkscape:export-filename="/home/damien/doors-ok.png">
      <path
         d="M 199.725,0 V 36.025 H 85.211 v 421.66 l 114.514,0.094 v 36.459 L 408.81,456.683 409.026,37.816 Z m 34.679,230.574 c 7.022,0 12.715,7.408 12.715,16.545 0,9.139 -5.692,16.545 -12.715,16.545 -7.023,0 -12.715,-7.406 -12.715,-16.545 -0.001,-9.137 5.693,-16.545 12.715,-16.545 z M 119.211,423.713 V 70.025 h 80.514 v 353.753 z"
         id="path1078"
         style="fill:#80ff84;fill-opacity:1" />
    </g>
    <g
       id="doors-warning"
       style="fill:#fff380;fill-opacity:1"
       transform="matrix(0.15440915,0,0,0.14163217,88.671822,20.228958)"
       inkscape:export-xdpi="21.771429"
       inkscape:export-ydpi="21.771429"
       inkscape:export-filename="/home/damien/doors-warning.png">
      <path
         d="M 199.725,0 V 36.025 H 85.211 v 421.66 l 114.514,0.094 v 36.459 L 408.81,456.683 409.026,37.816 Z m 34.679,230.574 c 7.022,0 12.715,7.408 12.715,16.545 0,9.139 -5.692,16.545 -12.715,16.545 -7.023,0 -12.715,-7.406 -12.715,-16.545 -0.001,-9.137 5.693,-16.545 12.715,-16.545 z M 119.211,423.713 V 70.025 h 80.514 v 353.753 z"
         id="path1078-5"
         style="fill:#fff380;fill-opacity:1" />
    </g>
    <g
       id="doors-error"
       style="fill:#ff8080;fill-opacity:1"
       transform="matrix(0.15440915,0,0,0.14163217,163.17841,20.309522)"
       inkscape:export-xdpi="21.771429"
       inkscape:export-ydpi="21.771429"
       inkscape:export-filename="/home/damien/doors-error.png">
      <path
         d="M 199.725,0 V 36.025 H 85.211 v 421.66 l 114.514,0.094 v 36.459 L 408.81,456.683 409.026,37.816 Z m 34.679,230.574 c 7.022,0 12.715,7.408 12.715,16.545 0,9.139 -5.692,16.545 -12.715,16.545 -7.023,0 -12.715,-7.406 -12.715,-16.545 -0.001,-9.137 5.693,-16.545 12.715,-16.545 z M 119.211,423.713 V 70.025 h 80.514 v 353.753 z"
         id="path1078-5-2"
         style="fill:#ff8080;fill-opacity:1" />
    </g>
    <g
       id="lights-warning"
       transform="matrix(0.13888921,0,0,0.13672401,90.215426,115.48191)"
       style="fill:#fff380;fill-opacity:1"
       inkscape:export-xdpi="21.771423"
       inkscape:export-ydpi="21.771423"
       inkscape:export-filename="/home/damien/lights-warning.png">
      <path
         d="m 139.702,317.377 c 13.119,11.113 21.818,26.169 24.961,42.604 H 240.99 V 253.082 c -25.849,-6.678 -45,-30.195 -45,-58.102 h 30 c 0,16.542 13.458,30 30,30 16.542,0 30,-13.458 30,-30 h 30 c 0,27.906 -19.151,51.424 -45,58.102 V 359.98 h 76.344 c 3.177,-16.431 11.959,-31.562 25.202,-42.823 40.326,-34.29 63.454,-84.289 63.454,-137.177 0,-161.352 -196.781,-240.593 -308.844,-125.467 -73.136,75.138 -66.884,195.57 12.556,262.864 z"
         id="path2447-1"
         style="fill:#fff380;fill-opacity:1" />
      <path
         d="m 255.99,511.98 c 33.084,0 60,-26.916 60,-60 h -120 c 0,33.084 26.916,60 60,60 z"
         id="path2449-2"
         style="fill:#fff380;fill-opacity:1" />
      <path
         d="m 165.99,389.98 h 180 v 32 h -180 z"
         id="path2451-7"
         style="fill:#fff380;fill-opacity:1" />
    </g>
    <g
       id="lights-error"
       transform="matrix(0.13888921,0,0,0.13672401,165.87637,115.67081)"
       style="fill:#ff8080;fill-opacity:1"
       inkscape:export-xdpi="21.771431"
       inkscape:export-ydpi="21.771431"
       inkscape:export-filename="/home/damien/lights-error.png">
      <path
         d="m 139.702,317.377 c 13.119,11.113 21.818,26.169 24.961,42.604 H 240.99 V 253.082 c -25.849,-6.678 -45,-30.195 -45,-58.102 h 30 c 0,16.542 13.458,30 30,30 16.542,0 30,-13.458 30,-30 h 30 c 0,27.906 -19.151,51.424 -45,58.102 V 359.98 h 76.344 c 3.177,-16.431 11.959,-31.562 25.202,-42.823 40.326,-34.29 63.454,-84.289 63.454,-137.177 0,-161.352 -196.781,-240.593 -308.844,-125.467 -73.136,75.138 -66.884,195.57 12.556,262.864 z"
         id="path2447-1-9"
         style="fill:#ff8080;fill-opacity:1" />
      <path
         d="m 255.99,511.98 c 33.084,0 60,-26.916 60,-60 h -120 c 0,33.084 26.916,60 60,60 z"
         id="path2449-2-3"
         style="fill:#ff8080;fill-opacity:1" />
      <path
         d="m 165.99,389.98 h 180 v 32 h -180 z"
         id="path2451-7-6"
         style="fill:#ff8080;fill-opacity:1" />
    </g>
  </g>
</svg>
